<?xml version="1.0" encoding="UTF-8" standalone="no"?>
<!-- Created with Inkscape (http://www.inkscape.org/) -->

<svg
   xmlns:dc="http://purl.org/dc/elements/1.1/"
   xmlns:cc="http://creativecommons.org/ns#"
   xmlns:rdf="http://www.w3.org/1999/02/22-rdf-syntax-ns#"
   xmlns:svg="http://www.w3.org/2000/svg"
   xmlns="http://www.w3.org/2000/svg"
   xmlns:sodipodi="http://sodipodi.sourceforge.net/DTD/sodipodi-0.dtd"
   xmlns:inkscape="http://www.inkscape.org/namespaces/inkscape"
   width="85.599998mm"
   height="53.98mm"
   viewBox="0 0 303.3071 191.26773"
   id="svg2"
   version="1.1"
   inkscape:version="0.91 r13725"
   sodipodi:docname="OIX.svg"
   inkscape:export-filename="/home/cho2/Gambar/OIX.png"
   inkscape:export-xdpi="90"
   inkscape:export-ydpi="90">
  <defs
     id="defs4" />
  <sodipodi:namedview
     id="base"
     pagecolor="#ffffff"
     bordercolor="#666666"
     borderopacity="1.0"
     inkscape:pageopacity="0.0"
     inkscape:pageshadow="2"
     inkscape:zoom="1.979899"
     inkscape:cx="125.21336"
     inkscape:cy="82.11714"
     inkscape:document-units="mm"
     inkscape:current-layer="layer1"
     showgrid="false"
     units="mm"
     inkscape:window-width="1366"
     inkscape:window-height="713"
     inkscape:window-x="0"
     inkscape:window-y="27"
     inkscape:window-maximized="1"
     showguides="true"
     inkscape:guide-bbox="true">
    <inkscape:grid
       type="xygrid"
       id="grid4166" />
    <sodipodi:guide
       position="151.65356,124.75385"
       orientation="1,0"
       id="guide4168"
       inkscape:label=""
       inkscape:color="rgb(0,0,255)" />
    <sodipodi:guide
       position="-42.931488,95.633866"
       orientation="0,1"
       id="guide4170"
       inkscape:label=""
       inkscape:color="rgb(0,0,255)" />
  </sodipodi:namedview>
  <metadata
     id="metadata7">
    <rdf:RDF>
      <cc:Work
         rdf:about="">
        <dc:format>image/svg+xml</dc:format>
        <dc:type
           rdf:resource="http://purl.org/dc/dcmitype/StillImage" />
        <dc:title></dc:title>
      </cc:Work>
    </rdf:RDF>
  </metadata>
  <g
     inkscape:label="Layer 1"
     inkscape:groupmode="layer"
     id="layer1"
     transform="translate(0,-861.09487)">
    <g
       style="font-style:normal;font-variant:normal;font-weight:normal;font-stretch:normal;font-size:159.66679382px;line-height:125%;font-family:Monospace;-inkscape-font-specification:Monospace;letter-spacing:0px;word-spacing:0px;fill:#000000;fill-opacity:1;stroke:none;stroke-width:1px;stroke-linecap:butt;stroke-linejoin:miter;stroke-opacity:1"
       id="text4155"
       transform="matrix(1.0421703,0,0,1.0421703,-8.8451576,-21.160162)">
      <path
         d="m 78.676931,892.97271 q -9.667325,0 -17.697442,3.35238 -7.952155,3.35238 -14.734875,10.1351 -6.782721,6.78272 -10.1351,14.73488 -3.274416,7.95215 -3.274416,17.61948 0,19.0228 13.409516,32.43231 13.409515,13.40952 32.432317,13.40952 19.022802,0 32.432319,-13.40952 13.40951,-13.40951 13.40951,-32.43231 0,-18.94484 -13.40951,-32.35436 -13.48748,-13.48748 -32.432319,-13.48748 z m 62.369839,45.84184 q 0,25.80552 -18.32114,44.12666 -18.24318,18.24319 -44.048699,18.24319 -25.883484,0 -44.126663,-18.24319 -18.243178,-18.24318 -18.243178,-44.12666 0,-25.80553 18.243178,-44.0487 18.321141,-18.32115 44.126663,-18.32115 25.727559,0 44.048699,18.32115 9.19955,9.19955 13.72137,20.11427 4.59977,10.91472 4.59977,23.93443 z"
         style="font-style:normal;font-variant:normal;font-weight:bold;font-stretch:normal;font-family:Comfortaa;-inkscape-font-specification:'Comfortaa Bold'"
         id="path4160"
         inkscape:connector-curvature="0" />
      <path
         d="m 175.19426,992.92038 q 0,3.43034 -2.41683,5.84718 -2.41683,2.41684 -5.84717,2.41684 -3.43034,0 -5.84717,-2.41684 -2.41683,-2.41684 -2.41683,-5.84718 l 0,-108.21167 q 0,-3.43034 2.41683,-5.84717 2.41683,-2.41684 5.84717,-2.41684 3.43034,0 5.84717,2.41684 2.41683,2.41683 2.41683,5.84717 l 0,108.21167 z"
         style="font-style:normal;font-variant:normal;font-weight:bold;font-stretch:normal;font-family:Comfortaa;-inkscape-font-specification:'Comfortaa Bold'"
         id="path4162"
         inkscape:connector-curvature="0" />
      <path
         d="m 204.74198,998.76756 q -2.41684,2.41684 -5.84718,2.41684 -3.43034,0 -5.84717,-2.33888 -2.41683,-2.41683 -2.41683,-5.84717 0,-2.96257 1.79313,-5.22348 l 38.12357,-48.96032 -38.35745,-49.27218 q -1.48129,-2.10498 -1.48129,-4.83366 0,-3.43034 2.41683,-5.84717 2.41683,-2.41684 5.84718,-2.41684 3.74219,0 5.84717,2.41684 l 36.25247,46.46553 36.25247,-46.46553 q 2.18294,-2.41684 5.84717,-2.41684 3.43034,0 5.76921,2.41684 2.41683,2.41683 2.41683,5.84717 0,2.72868 -1.48128,4.83366 l -38.27949,49.27218 38.12356,48.96032 q 1.71518,2.26091 1.71518,5.22348 0,3.43034 -2.41684,5.84717 -2.33886,2.33888 -5.76921,2.33888 -4.132,0 -6.47087,-2.96258 l -35.70673,-45.9198 -36.33043,46.46554 z"
         style="font-style:normal;font-variant:normal;font-weight:bold;font-stretch:normal;font-family:Comfortaa;-inkscape-font-specification:'Comfortaa Bold'"
         id="path4164"
         inkscape:connector-curvature="0" />
    </g>
  </g>
</svg>
